 http://www.imdb.com/title/tt0050083/

Source: 12.Angry.Men.1957.720p.BluRay.x264-SiNNERS

Subs: Arabic, Croatian, Danish, Dutch, English, Greek, Servian and Spanish.

Sample and Screens included.

General
Complete name                    : 12 Angry Men-720p MP4 AAC x264 BRRip 1957-CC.mp4
Format                           : MPEG-4
Format profile                   : Base Media
Codec ID                         : isom
File size                        : 1.77 GiB
Duration                         : 1h 36mn
Overall bit rate                 : 2 637 Kbps
Encoded date                     : UTC 2012-06-18 19:26:08

Video
ID                               : 1
Format                           : AVC
Format/Info                      : Advanced Video Codec
Format profile                   : High@L3.1
Format settings, CABAC           : Yes
Format settings, ReFrames        : 5 frames
Codec ID                         : avc1
Codec ID/Info                    : Advanced Video Coding
Duration                         : 1h 36mn
Bit rate mode                    : Variable
Bit rate                         : 2 472 Kbps
Nominal bit rate                 : 2 490 Kbps
Maximum bit rate                 : 10.3 Mbps
Width                            : 1 200 pixels
Height                           : 720 pixels
Display aspect ratio             : 1.667
Frame rate mode                  : Variable
Frame rate                       : 23.976 fps
Minimum frame rate               : 19.048 fps
Maximum frame rate               : 24.390 fps
Resolution                       : 24 bits
Colorimetry                      : 4:2:0
Scan type                        : Progressive
Bits/(Pixel*Frame)               : 0.119
Stream size                      : 1.66 GiB (94%)
Writing library                  : x264 core 112

Audio
ID                               : 2
Format                           : AAC
Format/Info                      : Advanced Audio Codec
Format version                   : Version 4
Format profile                   : LC
Format settings, SBR             : No
Format settings, PS              : Yes
Codec ID                         : 40
Duration                         : 1h 36mn
Bit rate mode                    : Variable
Bit rate                         : 160 Kbps
Maximum bit rate                 : 193 Kbps
Channel(s)                       : 2 channels
Channel positions                : Front: L R
Sampling rate                    : 48.0 KHz
Resolution                       : 16 bits
Stream size                      : 110 MiB (6%)
Language                         : English

Enjoy...

Requested by DreamExtractor